<svg width="62" height="64" viewBox="0 0 62 64" fill="none" xmlns="http://www.w3.org/2000/svg">
<g filter="url(#filter0_i_2_41)">
<path d="M61.5 32.2971C61.5 49.4179 47.8447 63.2971 31 63.2971C14.1553 63.2971 0.5 49.4179 0.5 32.2971C0.5 15.1763 14.1553 1.29712 31 1.29712C47.8447 1.29712 61.5 15.1763 61.5 32.2971Z" fill="#4116BA"/>
</g>
<path d="M61 32.2971C61 49.1495 47.5609 62.7971 31 62.7971C14.4391 62.7971 1 49.1495 1 32.2971C1 15.4447 14.4391 1.79712 31 1.79712C47.5609 1.79712 61 15.4447 61 32.2971Z" stroke="black"/>
<g filter="url(#filter1_i_2_41)">
<path d="M35.6959 1.00001L13.6093 8.93297L18.3018 39.6296L28.8193 35.852L27.7476 62.6223L39.6972 18.7522L27.5817 29.1005L35.6959 1.00001Z" fill="#FFD600"/>
</g>
<path d="M35.6959 1.00001L13.6093 8.93297L18.3018 39.6296L28.8193 35.852L27.7476 62.6223L39.6972 18.7522L27.5817 29.1005L35.6959 1.00001Z" stroke="black"/>
<path d="M4.32617 36V27.2727H8.09322C8.74094 27.2727 9.30771 27.4006 9.7935 27.6562C10.2793 27.9119 10.6571 28.2713 10.927 28.7344C11.1969 29.1974 11.3319 29.7386 11.3319 30.358C11.3319 30.983 11.1926 31.5241 10.9142 31.9815C10.6387 32.4389 10.2509 32.7912 9.75089 33.0384C9.25373 33.2855 8.67276 33.4091 8.00799 33.4091H5.75799V31.5682H7.53072C7.80913 31.5682 8.04634 31.5199 8.24237 31.4233C8.44123 31.3239 8.59322 31.1832 8.69833 31.0014C8.80629 30.8196 8.86026 30.6051 8.86026 30.358C8.86026 30.108 8.80629 29.8949 8.69833 29.7188C8.59322 29.5398 8.44123 29.4034 8.24237 29.3097C8.04634 29.2131 7.80913 29.1648 7.53072 29.1648H6.69549V36H4.32617ZM16.4796 33.1364V29.4545H18.8319V36H16.5989V34.7557H16.5307C16.3887 35.1733 16.1401 35.5 15.785 35.7358C15.4299 35.9687 15.008 36.0852 14.5194 36.0852C14.062 36.0852 13.6614 35.9801 13.3176 35.7699C12.9767 35.5597 12.7111 35.2699 12.5208 34.9006C12.3333 34.5312 12.2381 34.108 12.2353 33.6307V29.4545H14.5875V33.1364C14.5904 33.4602 14.6728 33.7145 14.8347 33.8991C14.9995 34.0838 15.2296 34.1761 15.525 34.1761C15.7211 34.1761 15.8901 34.1349 16.0321 34.0526C16.177 33.9673 16.2878 33.848 16.3645 33.6946C16.4441 33.5384 16.4824 33.3523 16.4796 33.1364ZM22.3805 32.3182V36H20.0282V29.4545H22.2612V30.6989H22.3294C22.4714 30.2841 22.7214 29.9588 23.0794 29.723C23.4402 29.4872 23.8606 29.3693 24.3407 29.3693C24.8038 29.3693 25.2058 29.4759 25.5467 29.6889C25.8904 29.8991 26.1561 30.1889 26.3436 30.5582C26.5339 30.9276 26.6277 31.3494 26.6248 31.8239V36H24.2725V32.3182C24.2754 31.9943 24.193 31.7401 24.0254 31.5554C23.8606 31.3707 23.6305 31.2784 23.335 31.2784C23.1419 31.2784 22.9728 31.321 22.8279 31.4062C22.6859 31.4886 22.5765 31.608 22.4998 31.7642C22.4231 31.9176 22.3833 32.1023 22.3805 32.3182ZM29.8997 34.4489L29.9167 31.6534H30.2235L31.8088 29.4545H34.4508L31.7917 32.8807H31.127L29.8997 34.4489ZM27.786 36V27.2727H30.1383V36H27.786ZM31.8258 36L30.3258 33.4091L31.8599 31.7386L34.519 36H31.8258ZM37.4199 36V27.2727H41.204C41.8688 27.2727 42.427 27.3622 42.8787 27.5412C43.3333 27.7202 43.6756 27.973 43.9057 28.2997C44.1387 28.6264 44.2551 29.0114 44.2551 29.4545C44.2551 29.7756 44.1841 30.0682 44.0421 30.3324C43.9029 30.5966 43.7069 30.8182 43.454 30.9972C43.2012 31.1733 42.9057 31.2955 42.5676 31.3636V31.4489C42.9426 31.4631 43.2836 31.5582 43.5904 31.7344C43.8972 31.9077 44.1415 32.1477 44.3233 32.4545C44.5051 32.7585 44.5961 33.1165 44.5961 33.5284C44.5961 34.0057 44.4711 34.4304 44.2211 34.8026C43.9739 35.1747 43.6216 35.4673 43.1642 35.6804C42.7069 35.8935 42.1614 36 41.5279 36H37.4199ZM39.7892 34.108H40.8972C41.2949 34.108 41.5932 34.0341 41.7921 33.8864C41.9909 33.7358 42.0904 33.5142 42.0904 33.2216C42.0904 33.017 42.0435 32.8437 41.9498 32.7017C41.856 32.5597 41.7225 32.4517 41.5492 32.3778C41.3787 32.304 41.1728 32.267 40.9313 32.267H39.7892V34.108ZM39.7892 30.8011H40.7608C40.9682 30.8011 41.1515 30.7685 41.3105 30.7031C41.4696 30.6378 41.5932 30.544 41.6813 30.4219C41.7722 30.2969 41.8176 30.1449 41.8176 29.9659C41.8176 29.696 41.7211 29.4901 41.5279 29.348C41.3347 29.2031 41.0904 29.1307 40.7949 29.1307H39.7892V30.8011ZM48.623 36.1193C47.9128 36.1193 47.3049 35.9787 46.7992 35.6974C46.2935 35.4134 45.9057 35.0185 45.6358 34.5128C45.3659 34.0043 45.231 33.4148 45.231 32.7443C45.231 32.0739 45.3659 31.4858 45.6358 30.9801C45.9057 30.4716 46.2935 30.0767 46.7992 29.7955C47.3049 29.5114 47.9128 29.3693 48.623 29.3693C49.3333 29.3693 49.9412 29.5114 50.4469 29.7955C50.9526 30.0767 51.3404 30.4716 51.6103 30.9801C51.8801 31.4858 52.0151 32.0739 52.0151 32.7443C52.0151 33.4148 51.8801 34.0043 51.6103 34.5128C51.3404 35.0185 50.9526 35.4134 50.4469 35.6974C49.9412 35.9787 49.3333 36.1193 48.623 36.1193ZM48.6401 34.3807C48.839 34.3807 49.0108 34.3139 49.1557 34.1804C49.3006 34.0469 49.4128 33.8565 49.4924 33.6094C49.5719 33.3622 49.6117 33.0682 49.6117 32.7273C49.6117 32.3835 49.5719 32.0895 49.4924 31.8452C49.4128 31.598 49.3006 31.4077 49.1557 31.2741C49.0108 31.1406 48.839 31.0739 48.6401 31.0739C48.4299 31.0739 48.2495 31.1406 48.0989 31.2741C47.9483 31.4077 47.8333 31.598 47.7537 31.8452C47.6742 32.0895 47.6344 32.3835 47.6344 32.7273C47.6344 33.0682 47.6742 33.3622 47.7537 33.6094C47.8333 33.8565 47.9483 34.0469 48.0989 34.1804C48.2495 34.3139 48.4299 34.3807 48.6401 34.3807ZM56.873 29.4545V31.1591H52.5605V29.4545H56.873ZM53.3958 27.8864H55.748V33.8949C55.748 33.9858 55.7637 34.0625 55.7949 34.125C55.8262 34.1847 55.8745 34.2301 55.9398 34.2614C56.0051 34.2898 56.089 34.304 56.1912 34.304C56.2623 34.304 56.3446 34.2955 56.4384 34.2784C56.535 34.2614 56.606 34.2472 56.6515 34.2358L56.9924 35.8892C56.8873 35.9205 56.7367 35.9588 56.5407 36.0043C56.3475 36.0497 56.1174 36.0795 55.8503 36.0938C55.3105 36.1222 54.8574 36.0668 54.4909 35.9276C54.1245 35.7855 53.8489 35.5625 53.6642 35.2585C53.4796 34.9545 53.3901 34.5739 53.3958 34.1165V27.8864Z" fill="#FCFCFC"/>
<path d="M4.32617 36H3.32617V37H4.32617V36ZM4.32617 27.2727V26.2727H3.32617V27.2727H4.32617ZM9.7935 27.6562L9.32775 28.5412L9.32776 28.5412L9.7935 27.6562ZM10.927 28.7344L11.791 28.2308L11.791 28.2308L10.927 28.7344ZM10.9142 31.9815L10.06 31.4616L10.0577 31.4655L10.9142 31.9815ZM9.75089 33.0384L9.30775 32.1419L9.30572 32.1429L9.75089 33.0384ZM5.75799 33.4091H4.75799V34.4091H5.75799V33.4091ZM5.75799 31.5682V30.5682H4.75799V31.5682H5.75799ZM8.24237 31.4233L8.68438 32.3203L8.68958 32.3177L8.24237 31.4233ZM8.69833 31.0014L7.83842 30.4908L7.8326 30.5009L8.69833 31.0014ZM8.69833 29.7188L7.83604 30.2252L7.84081 30.2333L7.84573 30.2413L8.69833 29.7188ZM8.24237 29.3097L7.80036 30.2067L7.80812 30.2105L7.81595 30.2142L8.24237 29.3097ZM6.69549 29.1648V28.1648H5.69549V29.1648H6.69549ZM6.69549 36V37H7.69549V36H6.69549ZM5.32617 36V27.2727H3.32617V36H5.32617ZM4.32617 28.2727H8.09322V26.2727H4.32617V28.2727ZM8.09322 28.2727C8.60781 28.2727 9.00933 28.3736 9.32775 28.5412L10.2592 26.7713C9.60609 26.4276 8.87408 26.2727 8.09322 26.2727V28.2727ZM9.32776 28.5412C9.65193 28.7118 9.88993 28.9409 10.0631 29.2379L11.791 28.2308C11.4243 27.6017 10.9067 27.1121 10.2592 26.7713L9.32776 28.5412ZM10.0631 29.2379C10.2308 29.5257 10.3319 29.8877 10.3319 30.358H12.3319C12.3319 29.5896 12.163 28.8692 11.791 28.2308L10.0631 29.2379ZM10.3319 30.358C10.3319 30.8307 10.2281 31.1855 10.06 31.4616L11.7684 32.5015C12.1572 31.8628 12.3319 31.1352 12.3319 30.358H10.3319ZM10.0577 31.4655C9.88526 31.7517 9.64445 31.9755 9.30775 32.1419L10.194 33.9348C10.8573 33.6069 11.3921 33.1262 11.7708 32.4976L10.0577 31.4655ZM9.30572 32.1429C8.97159 32.309 8.54847 32.4091 8.00799 32.4091V34.4091C8.79706 34.4091 9.53587 34.262 10.1961 33.9338L9.30572 32.1429ZM8.00799 32.4091H5.75799V34.4091H8.00799V32.4091ZM6.75799 33.4091V31.5682H4.75799V33.4091H6.75799ZM5.75799 32.5682H7.53072V30.5682H5.75799V32.5682ZM7.53072 32.5682C7.92167 32.5682 8.31846 32.5006 8.68437 32.3203L7.80036 30.5263C7.77422 30.5392 7.69658 30.5682 7.53072 30.5682V32.5682ZM8.68958 32.3177C9.05269 32.1362 9.35513 31.8633 9.56407 31.5019L7.8326 30.5009C7.82946 30.5063 7.82776 30.508 7.82637 30.5092C7.82464 30.5108 7.8163 30.5183 7.79515 30.5289L8.68958 32.3177ZM9.55819 31.512C9.77237 31.1512 9.86026 30.7541 9.86026 30.358H7.86026C7.86026 30.4561 7.8402 30.488 7.83848 30.4909L9.55819 31.512ZM9.86026 30.358C9.86026 29.9624 9.77376 29.5597 9.55093 29.1962L7.84573 30.2413C7.84378 30.2381 7.84658 30.2411 7.8504 30.2562C7.8545 30.2724 7.86026 30.3046 7.86026 30.358H9.86026ZM9.56062 29.2123C9.3474 28.8493 9.03831 28.5793 8.66878 28.4051L7.81595 30.2142C7.82545 30.2187 7.83127 30.2222 7.83429 30.2242C7.83725 30.2261 7.83813 30.227 7.83769 30.2266C7.83723 30.2262 7.83642 30.2253 7.83566 30.2244C7.83491 30.2235 7.83508 30.2235 7.83604 30.2252L9.56062 29.2123ZM8.68437 28.4126C8.31846 28.2323 7.92167 28.1648 7.53072 28.1648V30.1648C7.69658 30.1648 7.77422 30.1938 7.80036 30.2067L8.68437 28.4126ZM7.53072 28.1648H6.69549V30.1648H7.53072V28.1648ZM5.69549 29.1648V36H7.69549V29.1648H5.69549ZM6.69549 35H4.32617V37H6.69549V35ZM16.4796 33.1364H15.4795L15.4797 33.1495L16.4796 33.1364ZM16.4796 29.4545V28.4545H15.4796V29.4545H16.4796ZM18.8319 29.4545H19.8319V28.4545H18.8319V29.4545ZM18.8319 36V37H19.8319V36H18.8319ZM16.5989 36H15.5989V37H16.5989V36ZM16.5989 34.7557H17.5989V33.7557H16.5989V34.7557ZM16.5307 34.7557V33.7557H15.8146L15.584 34.4337L16.5307 34.7557ZM15.785 35.7358L16.3335 36.572L16.3381 36.5689L15.785 35.7358ZM13.3176 35.7699L12.7928 36.6211L12.7959 36.623L13.3176 35.7699ZM12.5208 34.9006L11.6291 35.3533L11.6319 35.3587L12.5208 34.9006ZM12.2353 33.6307H11.2352L11.2353 33.6366L12.2353 33.6307ZM12.2353 29.4545V28.4545H11.2353V29.4545H12.2353ZM14.5875 29.4545H15.5875V28.4545H14.5875V29.4545ZM14.5875 33.1364H13.5875L13.5876 33.1451L14.5875 33.1364ZM14.8347 33.8991L14.0828 34.5585L14.0886 34.5649L14.8347 33.8991ZM16.0321 34.0526L16.5339 34.9176L16.5392 34.9145L16.0321 34.0526ZM16.3645 33.6946L15.4733 33.2409L15.4701 33.2474L16.3645 33.6946ZM17.4796 33.1364V29.4545H15.4796V33.1364H17.4796ZM16.4796 30.4545H18.8319V28.4545H16.4796V30.4545ZM17.8319 29.4545V36H19.8319V29.4545H17.8319ZM18.8319 35H16.5989V37H18.8319V35ZM17.5989 36V34.7557H15.5989V36H17.5989ZM16.5989 33.7557H16.5307V35.7557H16.5989V33.7557ZM15.584 34.4337C15.5104 34.65 15.3961 34.7936 15.2318 34.9027L16.3381 36.5689C16.8841 36.2064 17.2669 35.6966 17.4775 35.0777L15.584 34.4337ZM15.2365 34.8997C15.0678 35.0103 14.8432 35.0852 14.5194 35.0852V37.0852C15.1728 37.0852 15.7919 36.9272 16.3335 36.5719L15.2365 34.8997ZM14.5194 35.0852C14.2206 35.0852 14.0057 35.0185 13.8394 34.9168L12.7959 36.623C13.3171 36.9417 13.9033 37.0852 14.5194 37.0852V35.0852ZM13.8425 34.9187C13.6624 34.8076 13.5199 34.6564 13.4097 34.4424L11.6319 35.3587C11.9023 35.8834 12.2911 36.3117 12.7928 36.6211L13.8425 34.9187ZM13.4124 34.4479C13.3052 34.2367 13.2373 33.9704 13.2352 33.6247L11.2353 33.6366C11.2389 34.2455 11.3613 34.8258 11.6291 35.3533L13.4124 34.4479ZM13.2353 33.6307V29.4545H11.2353V33.6307H13.2353ZM12.2353 30.4545H14.5875V28.4545H12.2353V30.4545ZM13.5875 29.4545V33.1364H15.5875V29.4545H13.5875ZM13.5876 33.1451C13.5918 33.6311 13.7184 34.1429 14.0828 34.5585L15.5866 33.2398C15.6029 33.2585 15.6058 33.271 15.6028 33.2617C15.5987 33.2493 15.5882 33.2086 15.5875 33.1276L13.5876 33.1451ZM14.0886 34.5649C14.4798 35.0034 15.0049 35.1761 15.525 35.1761V33.1761C15.481 33.1761 15.4795 33.1693 15.5032 33.1788C15.515 33.1835 15.5295 33.191 15.5448 33.2017C15.56 33.2124 15.5722 33.2236 15.5808 33.2334L14.0886 34.5649ZM15.525 35.1761C15.863 35.1761 16.2123 35.1041 16.5339 34.9176L15.5304 33.1875C15.5382 33.183 15.5454 33.1796 15.5513 33.1773C15.5572 33.1749 15.561 33.1739 15.5621 33.1737C15.5641 33.1732 15.5532 33.1761 15.525 33.1761V35.1761ZM16.5392 34.9145C16.8541 34.7292 17.0977 34.4642 17.259 34.1418L15.4701 33.2474C15.472 33.2436 15.4784 33.2323 15.4911 33.2187C15.5039 33.2049 15.5166 33.1956 15.5251 33.1906L16.5392 34.9145ZM17.2557 34.1483C17.4239 33.8178 17.484 33.4643 17.4795 33.1232L15.4797 33.1495C15.4809 33.2403 15.4642 33.2589 15.4734 33.2409L17.2557 34.1483ZM22.3805 32.3182L21.3805 32.305V32.3182H22.3805ZM22.3805 36V37H23.3805V36H22.3805ZM20.0282 36H19.0282V37H20.0282V36ZM20.0282 29.4545V28.4545H19.0282V29.4545H20.0282ZM22.2612 29.4545H23.2612V28.4545H22.2612V29.4545ZM22.2612 30.6989H21.2612V31.6989H22.2612V30.6989ZM22.3294 30.6989V31.6989H23.0439L23.2754 31.0229L22.3294 30.6989ZM23.0794 29.723L22.5323 28.8859L22.5293 28.8879L23.0794 29.723ZM25.5467 29.6889L25.0167 30.537L25.025 30.542L25.5467 29.6889ZM26.3436 30.5582L25.4519 31.0109L25.4547 31.0164L26.3436 30.5582ZM26.6248 31.8239L25.6248 31.8179V31.8239H26.6248ZM26.6248 36V37H27.6248V36H26.6248ZM24.2725 36H23.2725V37H24.2725V36ZM24.2725 32.3182L23.2725 32.3094V32.3182H24.2725ZM24.0254 31.5554L23.2792 32.2212L23.2849 32.2275L24.0254 31.5554ZM22.8279 31.4062L23.3297 32.2713L23.335 32.2682L22.8279 31.4062ZM22.4998 31.7642L23.3943 32.2114L23.3975 32.2049L22.4998 31.7642ZM21.3805 32.3182V36H23.3805V32.3182H21.3805ZM22.3805 35H20.0282V37H22.3805V35ZM21.0282 36V29.4545H19.0282V36H21.0282ZM20.0282 30.4545H22.2612V28.4545H20.0282V30.4545ZM21.2612 29.4545V30.6989H23.2612V29.4545H21.2612ZM22.2612 31.6989H22.3294V29.6989H22.2612V31.6989ZM23.2754 31.0229C23.3475 30.8124 23.461 30.6691 23.6295 30.5581L22.5293 28.8879C21.9819 29.2485 21.5953 29.7558 21.3833 30.3749L23.2754 31.0229ZM23.6264 30.5601C23.8064 30.4425 24.032 30.3693 24.3407 30.3693V28.3693C23.6892 28.3693 23.0739 28.5319 22.5323 28.8859L23.6264 30.5601ZM24.3407 30.3693C24.6454 30.3693 24.8577 30.4375 25.0167 30.5369L26.0767 28.8409C25.5539 28.5142 24.9622 28.3693 24.3407 28.3693V30.3693ZM25.025 30.542C25.2061 30.6528 25.3458 30.8019 25.4519 31.0109L27.2352 30.1055C26.9664 29.5759 26.5748 29.1455 26.0684 28.8358L25.025 30.542ZM25.4547 31.0164C25.5612 31.223 25.6269 31.4818 25.6248 31.8179L27.6248 31.8299C27.6285 31.2171 27.5066 30.6321 27.2325 30.1001L25.4547 31.0164ZM25.6248 31.8239V36H27.6248V31.8239H25.6248ZM26.6248 35H24.2725V37H26.6248V35ZM25.2725 36V32.3182H23.2725V36H25.2725ZM25.2725 32.327C25.2769 31.829 25.1482 31.3045 24.7658 30.8833L23.2849 32.2275C23.277 32.2188 23.2707 32.2098 23.2662 32.2019C23.2618 32.1941 23.2608 32.1904 23.2616 32.1928C23.2634 32.1986 23.2733 32.2331 23.2726 32.3094L25.2725 32.327ZM24.7715 30.8896C24.3803 30.4511 23.8552 30.2784 23.335 30.2784V32.2784C23.3791 32.2784 23.3805 32.2852 23.3568 32.2757C23.3451 32.271 23.3306 32.2636 23.3153 32.2529C23.3 32.2422 23.2879 32.2309 23.2792 32.2212L24.7715 30.8896ZM23.335 30.2784C22.9906 30.2784 22.6412 30.3559 22.3209 30.5443L23.335 32.2682C23.3292 32.2716 23.3235 32.2744 23.3183 32.2765C23.3132 32.2786 23.3095 32.2796 23.3078 32.28C23.3044 32.2809 23.3121 32.2784 23.335 32.2784V30.2784ZM22.3262 30.5412C22.0027 30.7289 21.7605 31.001 21.6022 31.3235L23.3975 32.2049C23.397 32.2059 23.391 32.2175 23.3765 32.2333C23.3618 32.2493 23.345 32.2624 23.3297 32.2713L22.3262 30.5412ZM21.6054 31.317C21.4461 31.6356 21.3849 31.9763 21.3806 32.305L23.3804 32.3313C23.3818 32.2282 23.4001 32.1997 23.3942 32.2114L21.6054 31.317ZM29.8997 34.4489L28.8997 34.4428L28.8818 37.372L30.6872 35.0652L29.8997 34.4489ZM29.9167 31.6534V30.6534H28.9228L28.9167 31.6473L29.9167 31.6534ZM30.2235 31.6534V32.6534H30.7354L31.0347 32.2382L30.2235 31.6534ZM31.8088 29.4545V28.4545H31.2969L30.9976 28.8697L31.8088 29.4545ZM34.4508 29.4545L35.2408 30.0677L36.4928 28.4545H34.4508V29.4545ZM31.7917 32.8807V33.8807H32.2815L32.5817 33.4938L31.7917 32.8807ZM31.127 32.8807V31.8807H30.6397L30.3394 32.2644L31.127 32.8807ZM27.786 36H26.786V37H27.786V36ZM27.786 27.2727V26.2727H26.786V27.2727H27.786ZM30.1383 27.2727H31.1383V26.2727H30.1383V27.2727ZM30.1383 36V37H31.1383V36H30.1383ZM31.8258 36L30.9604 36.501L31.2493 37H31.8258V36ZM30.3258 33.4091L29.5893 32.7327L29.0921 33.274L29.4604 33.9101L30.3258 33.4091ZM31.8599 31.7386L32.7083 31.2092L32.0125 30.0941L31.1234 31.0622L31.8599 31.7386ZM34.519 36V37H36.3217L35.3674 35.4706L34.519 36ZM30.8997 34.455L30.9167 31.6595L28.9167 31.6473L28.8997 34.4428L30.8997 34.455ZM29.9167 32.6534H30.2235V30.6534H29.9167V32.6534ZM31.0347 32.2382L32.6199 30.0393L30.9976 28.8697L29.4124 31.0686L31.0347 32.2382ZM31.8088 30.4545H34.4508V28.4545H31.8088V30.4545ZM33.6608 28.8414L31.0017 32.2676L32.5817 33.4938L35.2408 30.0677L33.6608 28.8414ZM31.7917 31.8807H31.127V33.8807H31.7917V31.8807ZM30.3394 32.2644L29.1122 33.8326L30.6872 35.0652L31.9145 33.497L30.3394 32.2644ZM28.786 36V27.2727H26.786V36H28.786ZM27.786 28.2727H30.1383V26.2727H27.786V28.2727ZM29.1383 27.2727V36H31.1383V27.2727H29.1383ZM30.1383 35H27.786V37H30.1383V35ZM32.6912 35.499L31.1912 32.9081L29.4604 33.9101L30.9604 36.501L32.6912 35.499ZM31.0623 34.0855L32.5964 32.415L31.1234 31.0622L29.5893 32.7327L31.0623 34.0855ZM31.0115 32.268L33.6706 36.5294L35.3674 35.4706L32.7083 31.2092L31.0115 32.268ZM34.519 35H31.8258V37H34.519V35ZM37.4199 36H36.4199V37H37.4199V36ZM37.4199 27.2727V26.2727H36.4199V27.2727H37.4199ZM42.8787 27.5412L42.5104 28.4709L42.5124 28.4717L42.8787 27.5412ZM43.9057 28.2997L43.0881 28.8756L43.0915 28.8803L43.9057 28.2997ZM44.0421 30.3324L43.1613 29.8588L43.1574 29.8662L44.0421 30.3324ZM43.454 30.9972L44.0256 31.8177L44.0318 31.8134L43.454 30.9972ZM42.5676 31.3636L42.3699 30.3834L41.5676 30.5452V31.3636H42.5676ZM42.5676 31.4489H41.5676V32.4117L42.5298 32.4481L42.5676 31.4489ZM43.5904 31.7344L43.0925 32.6016L43.0986 32.6051L43.5904 31.7344ZM44.3233 32.4545L43.463 32.9644L43.4651 32.9679L44.3233 32.4545ZM44.2211 34.8026L43.391 34.2449L43.388 34.2493L44.2211 34.8026ZM43.1642 35.6804L42.742 34.7739L42.742 34.7739L43.1642 35.6804ZM39.7892 34.108H38.7892V35.108H39.7892V34.108ZM41.7921 33.8864L42.3884 34.6891L42.3957 34.6836L41.7921 33.8864ZM41.5492 32.3778L41.1516 33.2954L41.1571 33.2978L41.5492 32.3778ZM39.7892 32.267V31.267H38.7892V32.267H39.7892ZM39.7892 30.8011H38.7892V31.8011H39.7892V30.8011ZM41.3105 30.7031L41.6905 31.6281L41.6905 31.6281L41.3105 30.7031ZM41.6813 30.4219L40.8725 29.8337L40.8701 29.8371L41.6813 30.4219ZM41.5279 29.348L40.9278 30.148L40.9355 30.1537L41.5279 29.348ZM39.7892 29.1307V28.1307H38.7892V29.1307H39.7892ZM38.4199 36V27.2727H36.4199V36H38.4199ZM37.4199 28.2727H41.204V26.2727H37.4199V28.2727ZM41.204 28.2727C41.7861 28.2727 42.2104 28.352 42.5104 28.4709L43.2471 26.6115C42.6436 26.3724 41.9515 26.2727 41.204 26.2727V28.2727ZM42.5124 28.4717C42.8258 28.5951 42.9934 28.741 43.0882 28.8756L44.7233 27.7239C44.3578 27.205 43.8407 26.8452 43.2451 26.6107L42.5124 28.4717ZM43.0915 28.8803C43.191 29.0199 43.2551 29.1967 43.2551 29.4545H45.2551C45.2551 28.826 45.0863 28.233 44.7199 27.7191L43.0915 28.8803ZM43.2551 29.4545C43.2551 29.6222 43.2196 29.7504 43.1613 29.8589L44.9229 30.8059C45.1486 30.386 45.2551 29.9289 45.2551 29.4545H43.2551ZM43.1574 29.8662C43.0943 29.986 43.0056 30.0894 42.8763 30.181L44.0318 31.8134C44.4081 31.547 44.7115 31.2072 44.9268 30.7985L43.1574 29.8662ZM42.8824 30.1766C42.7546 30.2656 42.5898 30.339 42.3699 30.3834L42.7653 32.3439C43.2216 32.2519 43.6477 32.0809 44.0256 31.8177L42.8824 30.1766ZM41.5676 31.3636V31.4489H43.5676V31.3636H41.5676ZM42.5298 32.4481C42.7531 32.4566 42.9346 32.511 43.0925 32.6016L44.0882 30.8671C43.6325 30.6055 43.1322 30.4695 42.6055 30.4496L42.5298 32.4481ZM43.0986 32.6051C43.2512 32.6913 43.3692 32.8061 43.463 32.9643L45.1836 31.9447C44.9138 31.4894 44.5432 31.1241 44.0822 30.8637L43.0986 32.6051ZM43.4651 32.9679C43.5399 33.0929 43.5961 33.2674 43.5961 33.5284H45.5961C45.5961 32.9656 45.4704 32.4241 45.1815 31.9412L43.4651 32.9679ZM43.5961 33.5284C43.5961 33.8205 43.5229 34.0485 43.391 34.2449L45.0512 35.3602C45.4192 34.8123 45.5961 34.1908 45.5961 33.5284H43.5961ZM43.388 34.2493C43.2554 34.4491 43.0547 34.6283 42.742 34.7739L43.5865 36.5869C44.1886 36.3064 44.6924 35.9004 45.0541 35.3558L43.388 34.2493ZM42.742 34.7739C42.4461 34.9117 42.0517 35 41.5279 35V37C42.2711 37 42.9676 36.8752 43.5865 36.5869L42.742 34.7739ZM41.5279 35H37.4199V37H41.5279V35ZM39.7892 35.108H40.8972V33.108H39.7892V35.108ZM40.8972 35.108C41.3896 35.108 41.9407 35.0217 42.3884 34.6891L41.1958 33.0836C41.2249 33.0619 41.2293 33.0694 41.1789 33.0819C41.1274 33.0946 41.0374 33.108 40.8972 33.108V35.108ZM42.3957 34.6836C42.8894 34.3099 43.0904 33.7661 43.0904 33.2216H41.0904C41.0904 33.2551 41.0848 33.2394 41.1034 33.1979C41.1126 33.1774 41.1256 33.1555 41.1423 33.1347C41.1589 33.114 41.1754 33.099 41.1884 33.0891L42.3957 34.6836ZM43.0904 33.2216C43.0904 32.8613 43.0061 32.4869 42.7844 32.1509L41.1151 33.2525C41.108 33.2418 41.1023 33.2312 41.098 33.2214C41.0936 33.2117 41.0912 33.204 41.0899 33.1993C41.0874 33.19 41.0904 33.1955 41.0904 33.2216H43.0904ZM42.7844 32.1509C42.5711 31.8278 42.2751 31.6002 41.9413 31.4579L41.1571 33.2978C41.1668 33.3019 41.1623 33.3013 41.1506 33.2918C41.1382 33.2818 41.1254 33.268 41.1151 33.2525L42.7844 32.1509ZM41.9468 31.4603C41.6193 31.3184 41.2703 31.267 40.9313 31.267V33.267C41.0752 33.267 41.1382 33.2896 41.1516 33.2954L41.9468 31.4603ZM40.9313 31.267H39.7892V33.267H40.9313V31.267ZM38.7892 32.267V34.108H40.7892V32.267H38.7892ZM39.7892 31.8011H40.7608V29.8011H39.7892V31.8011ZM40.7608 31.8011C41.0723 31.8011 41.3888 31.7521 41.6905 31.6281L40.9306 29.7781C40.9141 29.7849 40.8641 29.8011 40.7608 29.8011V31.8011ZM41.6905 31.6281C41.9972 31.5022 42.2804 31.3009 42.4925 31.0067L40.8701 29.8371C40.8858 29.8153 40.9033 29.7984 40.9182 29.7871C40.9323 29.7764 40.9387 29.7748 40.9306 29.7781L41.6905 31.6281ZM42.49 31.01C42.7241 30.6881 42.8176 30.3216 42.8176 29.9659H40.8176C40.8176 29.9706 40.8171 29.9556 40.8255 29.9276C40.8343 29.8982 40.8498 29.865 40.8725 29.8337L42.49 31.01ZM42.8176 29.9659C42.8176 29.4239 42.6046 28.8985 42.1203 28.5424L40.9355 30.1537C40.9051 30.1313 40.8663 30.09 40.8398 30.0336C40.8153 29.9812 40.8176 29.9507 40.8176 29.9659H42.8176ZM42.1279 28.548C41.7258 28.2465 41.2573 28.1307 40.7949 28.1307V30.1307C40.8614 30.1307 40.8989 30.1388 40.9155 30.1438C40.9302 30.1481 40.9314 30.1507 40.9279 30.148L42.1279 28.548ZM40.7949 28.1307H39.7892V30.1307H40.7949V28.1307ZM38.7892 29.1307V30.8011H40.7892V29.1307H38.7892ZM46.7992 35.6974L46.3094 36.5693L46.3131 36.5714L46.7992 35.6974ZM45.6358 34.5128L44.7525 34.9816L44.7536 34.9836L45.6358 34.5128ZM45.6358 30.9801L46.518 31.451L46.5191 31.4489L45.6358 30.9801ZM46.7992 29.7955L47.2852 30.6694L47.289 30.6673L46.7992 29.7955ZM50.4469 29.7955L49.9571 30.6673L49.9609 30.6694L50.4469 29.7955ZM51.6103 30.9801L50.727 31.4489L50.728 31.451L51.6103 30.9801ZM51.6103 34.5128L52.4925 34.9836L52.4936 34.9816L51.6103 34.5128ZM50.4469 35.6974L50.933 36.5714L50.9367 36.5693L50.4469 35.6974ZM49.1557 34.1804L49.8334 34.9158L49.8334 34.9158L49.1557 34.1804ZM49.4924 33.6094L50.4443 33.9157L50.4443 33.9157L49.4924 33.6094ZM49.4924 31.8452L48.5404 32.1515L48.5415 32.1548L49.4924 31.8452ZM49.1557 31.2741L49.8334 30.5388L49.8334 30.5388L49.1557 31.2741ZM47.7537 31.8452L48.7046 32.1548L48.7056 32.1515L47.7537 31.8452ZM47.7537 33.6094L48.7056 33.303L48.7056 33.303L47.7537 33.6094ZM48.623 35.1193C48.0446 35.1193 47.612 35.0053 47.2852 34.8235L46.3131 36.5714C46.9977 36.9521 47.781 37.1193 48.623 37.1193V35.1193ZM47.289 34.8256C46.9476 34.6338 46.6969 34.3771 46.518 34.0419L44.7536 34.9836C45.1145 35.6598 45.6394 36.1929 46.3094 36.5693L47.289 34.8256ZM46.5191 34.044C46.3376 33.7019 46.231 33.2783 46.231 32.7443H44.231C44.231 33.5512 44.3943 34.3066 44.7525 34.9816L46.5191 34.044ZM46.231 32.7443C46.231 32.2102 46.3377 31.789 46.518 31.451L44.7536 30.5093C44.3942 31.1826 44.231 31.9376 44.231 32.7443H46.231ZM46.5191 31.4489C46.698 31.1119 46.9474 30.8573 47.2852 30.6694L46.3131 28.9215C45.6396 29.2961 45.1134 29.8313 44.7525 30.5113L46.5191 31.4489ZM47.289 30.6673C47.615 30.4841 48.0462 30.3693 48.623 30.3693V28.3693C47.7795 28.3693 46.9948 28.5386 46.3094 28.9236L47.289 30.6673ZM48.623 30.3693C49.1999 30.3693 49.6311 30.4841 49.9571 30.6673L50.9367 28.9236C50.2513 28.5386 49.4666 28.3693 48.623 28.3693V30.3693ZM49.9609 30.6694C50.2987 30.8573 50.5481 31.1119 50.727 31.4489L52.4936 30.5113C52.1327 29.8313 51.6065 29.2961 50.933 28.9215L49.9609 30.6694ZM50.728 31.451C50.9084 31.789 51.0151 32.2102 51.0151 32.7443H53.0151C53.0151 31.9376 52.8519 31.1826 52.4925 30.5093L50.728 31.451ZM51.0151 32.7443C51.0151 33.2783 50.9085 33.7019 50.727 34.044L52.4936 34.9816C52.8518 34.3066 53.0151 33.5512 53.0151 32.7443H51.0151ZM50.728 34.0419C50.5492 34.3771 50.2985 34.6338 49.9571 34.8256L50.9367 36.5693C51.6067 36.1929 52.1316 35.6598 52.4925 34.9836L50.728 34.0419ZM49.9609 34.8235C49.6341 35.0053 49.2015 35.1193 48.623 35.1193V37.1193C49.4651 37.1193 50.2484 36.9521 50.933 36.5714L49.9609 34.8235ZM48.6401 35.3807C49.0875 35.3807 49.502 35.2212 49.8334 34.9158L48.478 33.445C48.4912 33.4329 48.5176 33.4134 48.5561 33.3985C48.5944 33.3836 48.6255 33.3807 48.6401 33.3807V35.3807ZM49.8334 34.9158C50.1392 34.6339 50.3281 34.2766 50.4443 33.9157L48.5405 33.303C48.4975 33.4365 48.462 33.4599 48.478 33.445L49.8334 34.9158ZM50.4443 33.9157C50.5639 33.5441 50.6117 33.1416 50.6117 32.7273H48.6117C48.6117 32.9948 48.5799 33.1803 48.5405 33.303L50.4443 33.9157ZM50.6117 32.7273C50.6117 32.3116 50.5642 31.9072 50.4432 31.5356L48.5415 32.1548C48.5796 32.2718 48.6117 32.4555 48.6117 32.7273H50.6117ZM50.4443 31.5388C50.3281 31.178 50.1392 30.8206 49.8334 30.5388L48.478 32.0095C48.462 31.9947 48.4975 32.0181 48.5405 32.1515L50.4443 31.5388ZM49.8334 30.5388C49.502 30.2333 49.0875 30.0739 48.6401 30.0739V32.0739C48.6255 32.0739 48.5944 32.071 48.5561 32.0561C48.5176 32.0411 48.4912 32.0216 48.478 32.0095L49.8334 30.5388ZM48.6401 30.0739C48.1973 30.0739 47.7777 30.2225 47.4354 30.526L48.7624 32.0223C48.7492 32.034 48.7256 32.0501 48.6942 32.0618C48.6634 32.0732 48.6424 32.0739 48.6401 32.0739V30.0739ZM47.4354 30.526C47.1173 30.808 46.9206 31.1697 46.8018 31.5388L48.7056 32.1515C48.7459 32.0264 48.7793 32.0073 48.7624 32.0223L47.4354 30.526ZM46.8029 31.5356C46.6819 31.9072 46.6344 32.3116 46.6344 32.7273H48.6344C48.6344 32.4555 48.6665 32.2718 48.7046 32.1548L46.8029 31.5356ZM46.6344 32.7273C46.6344 33.1416 46.6822 33.5441 46.8018 33.9157L48.7056 33.303C48.6661 33.1803 48.6344 32.9948 48.6344 32.7273H46.6344ZM46.8018 33.9157C46.9206 34.2849 47.1173 34.6465 47.4354 34.9286L48.7624 33.4322C48.7793 33.4472 48.7459 33.4282 48.7056 33.303L46.8018 33.9157ZM47.4354 34.9286C47.7777 35.2321 48.1973 35.3807 48.6401 35.3807V33.3807C48.6424 33.3807 48.6634 33.3814 48.6942 33.3928C48.7256 33.4044 48.7492 33.4205 48.7624 33.4322L47.4354 34.9286ZM56.873 29.4545H57.873V28.4545H56.873V29.4545ZM56.873 31.1591V32.1591H57.873V31.1591H56.873ZM52.5605 31.1591H51.5605V32.1591H52.5605V31.1591ZM52.5605 29.4545V28.4545H51.5605V29.4545H52.5605ZM53.3958 27.8864V26.8864H52.3958V27.8864H53.3958ZM55.748 27.8864H56.748V26.8864H55.748V27.8864ZM55.7949 34.125L54.9005 34.5722L54.9047 34.5807L54.9091 34.589L55.7949 34.125ZM55.9398 34.2614L55.5084 35.1635L55.5246 35.1713L55.5411 35.1784L55.9398 34.2614ZM56.4384 34.2784L56.2646 33.2936L56.2595 33.2945L56.4384 34.2784ZM56.6515 34.2358L57.6309 34.0339L57.4203 33.0128L56.4089 33.2657L56.6515 34.2358ZM56.9924 35.8892L57.2773 36.8477L58.1571 36.5862L57.9718 35.6873L56.9924 35.8892ZM56.5407 36.0043L56.3148 35.0301L56.3116 35.0308L56.5407 36.0043ZM55.8503 36.0938L55.9029 37.0924L55.9034 37.0923L55.8503 36.0938ZM54.4909 35.9276L54.1295 36.86L54.1359 36.8624L54.4909 35.9276ZM53.6642 35.2585L52.8096 35.7777L52.8096 35.7777L53.6642 35.2585ZM53.3958 34.1165L54.3958 34.1289V34.1165H53.3958ZM55.873 29.4545V31.1591H57.873V29.4545H55.873ZM56.873 30.1591H52.5605V32.1591H56.873V30.1591ZM53.5605 31.1591V29.4545H51.5605V31.1591H53.5605ZM52.5605 30.4545H56.873V28.4545H52.5605V30.4545ZM53.3958 28.8864H55.748V26.8864H53.3958V28.8864ZM54.748 27.8864V33.8949H56.748V27.8864H54.748ZM54.748 33.8949C54.748 34.096 54.7821 34.3355 54.9005 34.5722L56.6893 33.6778C56.7452 33.7895 56.748 33.8756 56.748 33.8949H54.748ZM54.9091 34.589C55.0483 34.8547 55.2638 35.0466 55.5084 35.1635L56.3713 33.3592C56.4851 33.4137 56.6041 33.5146 56.6808 33.661L54.9091 34.589ZM55.5411 35.1784C55.7745 35.2799 56.0069 35.304 56.1912 35.304V33.304C56.1852 33.304 56.1957 33.3035 56.2188 33.3074C56.2418 33.3113 56.2845 33.3208 56.3385 33.3443L55.5411 35.1784ZM56.1912 35.304C56.3386 35.304 56.4831 35.2867 56.6173 35.2623L56.2595 33.2945C56.2342 33.2991 56.2157 33.3016 56.2034 33.3029C56.1909 33.3042 56.1873 33.304 56.1912 33.304V35.304ZM56.6122 35.2632C56.7126 35.2455 56.8126 35.2263 56.894 35.2059L56.4089 33.2657C56.409 33.2656 56.4057 33.2665 56.3982 33.2681C56.3908 33.2697 56.3809 33.2718 56.368 33.2744C56.342 33.2796 56.3079 33.286 56.2646 33.2936L56.6122 35.2632ZM55.6721 34.4377L56.013 36.0911L57.9718 35.6873L57.6309 34.0339L55.6721 34.4377ZM56.7074 34.9307C56.6316 34.9532 56.5044 34.9861 56.3148 35.0301L56.7666 36.9784C56.969 36.9315 57.1429 36.8877 57.2773 36.8477L56.7074 34.9307ZM56.3116 35.0308C56.1922 35.059 56.0239 35.0831 55.7972 35.0952L55.9034 37.0923C56.2108 37.076 56.5028 37.0405 56.7697 36.9777L56.3116 35.0308ZM55.7978 35.0951C55.3475 35.1188 55.0432 35.0676 54.846 34.9927L54.1359 36.8624C54.6716 37.0659 55.2736 37.1255 55.9029 37.0924L55.7978 35.0951ZM54.8523 34.9951C54.6685 34.9239 54.5771 34.8351 54.5189 34.7393L52.8096 35.7777C53.1207 36.2899 53.5804 36.6471 54.1295 36.86L54.8523 34.9951ZM54.5189 34.7393C54.4557 34.6353 54.3917 34.4518 54.3957 34.1289L52.3959 34.1041C52.3885 34.6959 52.5035 35.2738 52.8096 35.7777L54.5189 34.7393ZM54.3958 34.1165V27.8864H52.3958V34.1165H54.3958Z" fill="black" fill-opacity="0.9"/>
<defs>
<filter id="filter0_i_2_41" x="0.5" y="1.29712" width="61" height="66" filterUnits="userSpaceOnUse" color-interpolation-filters="sRGB">
<feFlood flood-opacity="0" result="BackgroundImageFix"/>
<feBlend mode="normal" in="SourceGraphic" in2="BackgroundImageFix" result="shape"/>
<feColorMatrix in="SourceAlpha" type="matrix" values="0 0 0 0 0 0 0 0 0 0 0 0 0 0 0 0 0 0 127 0" result="hardAlpha"/>
<feOffset dy="4"/>
<feGaussianBlur stdDeviation="2"/>
<feComposite in2="hardAlpha" operator="arithmetic" k2="-1" k3="1"/>
<feColorMatrix type="matrix" values="0 0 0 0 0 0 0 0 0 0 0 0 0 0 0 0 0 0 0.25 0"/>
<feBlend mode="normal" in2="shape" result="effect1_innerShadow_2_41"/>
</filter>
<filter id="filter1_i_2_41" x="13.0528" y="0.1987" width="27.5531" height="66.555" filterUnits="userSpaceOnUse" color-interpolation-filters="sRGB">
<feFlood flood-opacity="0" result="BackgroundImageFix"/>
<feBlend mode="normal" in="SourceGraphic" in2="BackgroundImageFix" result="shape"/>
<feColorMatrix in="SourceAlpha" type="matrix" values="0 0 0 0 0 0 0 0 0 0 0 0 0 0 0 0 0 0 127 0" result="hardAlpha"/>
<feOffset dy="4"/>
<feGaussianBlur stdDeviation="2"/>
<feComposite in2="hardAlpha" operator="arithmetic" k2="-1" k3="1"/>
<feColorMatrix type="matrix" values="0 0 0 0 0 0 0 0 0 0 0 0 0 0 0 0 0 0 0.25 0"/>
<feBlend mode="normal" in2="shape" result="effect1_innerShadow_2_41"/>
</filter>
</defs>
</svg>
