<svg width="247" height="89" viewBox="0 0 247 89" fill="none" xmlns="http://www.w3.org/2000/svg">
<g clip-path="url(#clip0_3_2)">
<g filter="url(#filter0_i_3_2)">
<path d="M27.6959 21L5.6093 28.933L10.3018 59.6296L20.8193 55.852L19.7476 82.6222L31.6972 38.7522L19.5817 49.1005L27.6959 21Z" fill="#FFD600"/>
</g>
<path d="M27.6959 21L5.6093 28.933L10.3018 59.6296L20.8193 55.852L19.7476 82.6222L31.6972 38.7522L19.5817 49.1005L27.6959 21Z" stroke="black"/>
<g filter="url(#filter1_i_3_2)">
<path d="M219.696 21L241.782 28.933L237.09 59.6296L226.573 55.852L227.644 82.6222L215.695 38.7522L227.81 49.1005L219.696 21Z" fill="#FFD600"/>
</g>
<path d="M219.696 21L241.782 28.933L237.09 59.6296L226.573 55.852L227.644 82.6222L215.695 38.7522L227.81 49.1005L219.696 21Z" stroke="black"/>
<path d="M57.3074 45.725L52.0897 23.0447L61.8794 20.7926C63.5627 20.4053 65.1121 20.3987 66.5274 20.7727C67.9427 21.1468 69.1395 21.8548 70.1177 22.8969C71.096 23.9389 71.7702 25.2647 72.1405 26.8742C72.5141 28.4984 72.4759 29.9881 72.0259 31.3432C71.5832 32.6966 70.786 33.8439 69.6344 34.7851C68.4902 35.7247 67.0542 36.3932 65.3266 36.7906L59.4794 38.1358L58.3788 33.3517L62.9857 32.2918C63.7092 32.1254 64.2968 31.858 64.7485 31.4898C65.2059 31.1125 65.5168 30.6562 65.6812 30.1209C65.8531 29.5838 65.8651 28.9941 65.7174 28.3518C65.5679 27.7021 65.3002 27.1807 64.9144 26.7875C64.5342 26.3852 64.0577 26.1217 63.4848 25.9969C62.9177 25.8631 62.2723 25.8794 61.5488 26.0459L59.3782 26.5452L63.4647 44.3085L57.3074 45.725Z" fill="#201692"/>
<path d="M83.4745 53.8828L87.9715 55.3764L84.4469 65.9882C84.0278 67.25 83.3632 68.2416 82.453 68.9631C81.55 69.6809 80.4787 70.1124 79.2391 70.2575C78.0013 70.3972 76.6733 70.2315 75.2552 69.7605C73.8263 69.2859 72.6577 68.6223 71.7494 67.7698C70.8429 66.912 70.2426 65.9253 69.9486 64.8098C69.6617 63.6908 69.7278 62.5004 70.1469 61.2386L73.6715 50.6268L78.1686 52.1204L74.7729 62.344C74.6028 62.8563 74.5638 63.3522 74.6559 63.8318C74.7499 64.3061 74.9587 64.7227 75.2825 65.0817C75.6117 65.4425 76.0324 65.708 76.5447 65.8781C77.0623 66.05 77.5583 66.089 78.0325 65.9951C78.5068 65.9012 78.9234 65.6923 79.2824 65.3685C79.6432 65.0393 79.9087 64.6186 80.0788 64.1063L83.4745 53.8828Z" fill="#5A22B5"/>
<path d="M114.989 21.0553L118.067 49.9829L111.513 50.6803L99.4434 36.5943L99.2739 36.6123L100.891 51.8106L93.0377 52.6462L89.9596 23.7187L96.6265 23.0092L108.521 37.0568L108.747 37.0328L107.135 21.891L114.989 21.0553Z" fill="#3E1089"/>
<path d="M113.722 65.8452L120.393 49.7157L124.772 51.5267L122.075 58.0478L122.296 58.139L129.844 53.6243L134.948 55.7349L126.527 60.6637L128.403 71.9166L123.173 69.7539L122.052 62.207L119.821 63.4978L118.101 67.6562L113.722 65.8452Z" fill="#4C076C"/>
<path d="M140.719 45V10.0909H155.855C158.514 10.0909 160.747 10.4489 162.554 11.1648C164.372 11.8807 165.741 12.892 166.662 14.1989C167.594 15.5057 168.06 17.0455 168.06 18.8182C168.06 20.1023 167.776 21.2727 167.207 22.3295C166.651 23.3864 165.866 24.2727 164.855 24.9886C163.844 25.6932 162.662 26.1818 161.31 26.4545V26.7955C162.81 26.8523 164.173 27.233 165.401 27.9375C166.628 28.6307 167.605 29.5909 168.332 30.8182C169.06 32.0341 169.423 33.4659 169.423 35.1136C169.423 37.0227 168.923 38.7216 167.923 40.2102C166.935 41.6989 165.526 42.8693 163.696 43.7216C161.866 44.5739 159.685 45 157.151 45H140.719ZM150.196 37.4318H154.628C156.219 37.4318 157.412 37.1364 158.207 36.5455C159.003 35.9432 159.401 35.0568 159.401 33.8864C159.401 33.0682 159.213 32.375 158.838 31.8068C158.463 31.2386 157.929 30.8068 157.236 30.5114C156.554 30.2159 155.73 30.0682 154.764 30.0682H150.196V37.4318ZM150.196 24.2045H154.082C154.912 24.2045 155.645 24.0739 156.281 23.8125C156.918 23.5511 157.412 23.1761 157.764 22.6875C158.128 22.1875 158.31 21.5795 158.31 20.8636C158.31 19.7841 157.923 18.9602 157.151 18.392C156.378 17.8125 155.401 17.5227 154.219 17.5227H150.196V24.2045Z" fill="#070707"/>
<path d="M190.225 55.9091C190.225 58.8239 189.658 61.2827 188.525 63.2855C187.391 65.2798 185.861 66.7926 183.935 67.8239C182.009 68.8466 179.861 69.358 177.492 69.358C175.106 69.358 172.949 68.8423 171.023 67.8111C169.106 66.7713 167.58 65.2543 166.447 63.2599C165.322 61.2571 164.759 58.8068 164.759 55.9091C164.759 52.9943 165.322 50.5398 166.447 48.5455C167.58 46.5426 169.106 45.0298 171.023 44.0071C172.949 42.9759 175.106 42.4602 177.492 42.4602C179.861 42.4602 182.009 42.9759 183.935 44.0071C185.861 45.0298 187.391 46.5426 188.525 48.5455C189.658 50.5398 190.225 52.9943 190.225 55.9091ZM182.912 55.9091C182.912 54.3409 182.704 53.0199 182.286 51.946C181.877 50.8636 181.268 50.0455 180.458 49.4915C179.657 48.929 178.668 48.6477 177.492 48.6477C176.316 48.6477 175.323 48.929 174.513 49.4915C173.712 50.0455 173.103 50.8636 172.685 51.946C172.276 53.0199 172.072 54.3409 172.072 55.9091C172.072 57.4773 172.276 58.8026 172.685 59.8849C173.103 60.9588 173.712 61.777 174.513 62.3395C175.323 62.8935 176.316 63.1705 177.492 63.1705C178.668 63.1705 179.657 62.8935 180.458 62.3395C181.268 61.777 181.877 60.9588 182.286 59.8849C182.704 58.8026 182.912 57.4773 182.912 55.9091Z" fill="black"/>
<path d="M189.379 30.8182V25.7273H209.607V30.8182H202.607V49H196.379V30.8182H189.379Z" fill="black"/>
</g>
<defs>
<filter id="filter0_i_3_2" x="5.05286" y="20.1987" width="27.5531" height="66.555" filterUnits="userSpaceOnUse" color-interpolation-filters="sRGB">
<feFlood flood-opacity="0" result="BackgroundImageFix"/>
<feBlend mode="normal" in="SourceGraphic" in2="BackgroundImageFix" result="shape"/>
<feColorMatrix in="SourceAlpha" type="matrix" values="0 0 0 0 0 0 0 0 0 0 0 0 0 0 0 0 0 0 127 0" result="hardAlpha"/>
<feOffset dy="4"/>
<feGaussianBlur stdDeviation="2"/>
<feComposite in2="hardAlpha" operator="arithmetic" k2="-1" k3="1"/>
<feColorMatrix type="matrix" values="0 0 0 0 0 0 0 0 0 0 0 0 0 0 0 0 0 0 0.25 0"/>
<feBlend mode="normal" in2="shape" result="effect1_innerShadow_3_2"/>
</filter>
<filter id="filter1_i_3_2" x="214.786" y="20.1987" width="27.5531" height="66.555" filterUnits="userSpaceOnUse" color-interpolation-filters="sRGB">
<feFlood flood-opacity="0" result="BackgroundImageFix"/>
<feBlend mode="normal" in="SourceGraphic" in2="BackgroundImageFix" result="shape"/>
<feColorMatrix in="SourceAlpha" type="matrix" values="0 0 0 0 0 0 0 0 0 0 0 0 0 0 0 0 0 0 127 0" result="hardAlpha"/>
<feOffset dy="4"/>
<feGaussianBlur stdDeviation="2"/>
<feComposite in2="hardAlpha" operator="arithmetic" k2="-1" k3="1"/>
<feColorMatrix type="matrix" values="0 0 0 0 0 0 0 0 0 0 0 0 0 0 0 0 0 0 0.25 0"/>
<feBlend mode="normal" in2="shape" result="effect1_innerShadow_3_2"/>
</filter>
<clipPath id="clip0_3_2">
<rect width="247" height="89" fill="white"/>
</clipPath>
</defs>
</svg>
